<?xml version="1.0" encoding="UTF-8"?>
<!DOCTYPE svg PUBLIC "-//W3C//DTD SVG 1.1//EN" "http://www.w3.org/Graphics/SVG/1.1/DTD/svg11.dtd">
<svg xmlns="http://www.w3.org/2000/svg" version="1.1" width="352px" height="143px" style="shape-rendering:geometricPrecision; text-rendering:geometricPrecision; image-rendering:optimizeQuality; fill-rule:evenodd; clip-rule:evenodd" xmlns:xlink="http://www.w3.org/1999/xlink">
<g><path style="opacity:1" fill="#f7f7f8" d="M -0.5,-0.5 C 116.833,-0.5 234.167,-0.5 351.5,-0.5C 351.5,47.1667 351.5,94.8333 351.5,142.5C 234.167,142.5 116.833,142.5 -0.5,142.5C -0.5,94.8333 -0.5,47.1667 -0.5,-0.5 Z"/></g>
<g><path style="opacity:1" fill="#001767" d="M 2.5,2.5 C 70.1667,2.5 137.833,2.5 205.5,2.5C 205.5,47.8333 205.5,93.1667 205.5,138.5C 205.167,138.5 204.833,138.5 204.5,138.5C 204.5,93.5 204.5,48.5 204.5,3.5C 137.5,3.5 70.5,3.5 3.5,3.5C 2.83333,3.5 2.5,3.16667 2.5,2.5 Z"/></g>
<g><path style="opacity:1" fill="#465985" d="M 2.5,2.5 C 2.5,3.16667 2.83333,3.5 3.5,3.5C 3.5,48.5 3.5,93.5 3.5,138.5C 70.5,138.5 137.5,138.5 204.5,138.5C 137.167,139.167 69.8333,139.833 2.5,140.5C 1.16667,94.5 1.16667,48.5 2.5,2.5 Z"/></g>
<g><path style="opacity:1" fill="#fdfdfd" d="M 3.5,3.5 C 70.5,3.5 137.5,3.5 204.5,3.5C 204.5,48.5 204.5,93.5 204.5,138.5C 137.5,138.5 70.5,138.5 3.5,138.5C 3.5,93.5 3.5,48.5 3.5,3.5 Z"/></g>
<g><path style="opacity:1" fill="#e52a3b" d="M 95.5,60.5 C 96.1667,60.5 96.5,60.8333 96.5,61.5C 85.1438,63.4711 73.8105,65.6378 62.5,68C 58.8333,68.6667 55.1667,68.6667 51.5,68C 50.4086,65.9361 50.2419,63.7695 51,61.5C 52.7771,58.2801 54.2771,54.9467 55.5,51.5C 54.6022,48.7057 52.6022,47.3723 49.5,47.5C 45.4174,48.3606 41.4174,49.5273 37.5,51C 30.4793,55.0067 23.4793,58.6733 16.5,62C 17.8073,58.026 20.4739,55.3594 24.5,54C 32.6823,49.4044 41.349,46.2377 50.5,44.5C 57.3372,43.8351 60.1705,46.8351 59,53.5C 52.6846,65.1864 56.1846,69.0198 69.5,65C 78.1029,63.0808 86.7696,61.5808 95.5,60.5 Z"/></g>
<g><path style="opacity:1" fill="#e63743" d="M 72.5,48.5 C 74.1171,49.5893 74.9504,51.256 75,53.5C 75.7504,54.1258 76.5838,54.6258 77.5,55C 74.2712,55.3563 72.7712,57.1897 73,60.5C 71.1434,58.3687 68.9768,57.8687 66.5,59C 67.7908,56.9098 67.1242,55.5764 64.5,55C 68.5332,54.4628 71.1999,52.2961 72.5,48.5 Z"/></g>
<g><path style="opacity:1" fill="#e95f5f" d="M 96.5,61.5 C 96.5,60.8333 96.1667,60.5 95.5,60.5C 103.943,58.6416 112.61,58.1416 121.5,59C 113.143,59.7024 104.81,60.5357 96.5,61.5 Z"/></g>
<g><path style="opacity:1" fill="#1f3775" d="M 184.5,67.5 C 185.497,67.4701 186.164,67.9701 186.5,69C 185.363,74.3959 183.697,79.5626 181.5,84.5C 181.167,83.6667 180.833,82.8333 180.5,82C 182.073,77.207 183.406,72.3737 184.5,67.5 Z"/></g>
<g><path style="opacity:1" fill="#293e78" d="M 33.5,72.5 C 46.2996,70.2052 48.9663,74.3718 41.5,85C 28.822,87.1111 26.1554,82.9444 33.5,72.5 Z"/></g>
<g><path style="opacity:1" fill="#2c417a" d="M 50.5,72.5 C 61.961,70.5402 64.6276,74.5402 58.5,84.5C 57.9315,81.5884 57.9315,78.5884 58.5,75.5C 56.1432,75.3367 53.8098,75.5034 51.5,76C 50.6855,79.4784 49.3522,82.6451 47.5,85.5C 46.9615,80.8781 47.9615,76.5448 50.5,72.5 Z"/></g>
<g><path style="opacity:1" fill="#1a3572" d="M 84.5,72.5 C 88.5546,72.1758 92.5546,72.5091 96.5,73.5C 92.8927,74.4892 89.226,74.8226 85.5,74.5C 85.5,75.5 85.5,76.5 85.5,77.5C 88.8499,77.335 92.1832,77.5017 95.5,78C 96.6834,80.1551 96.3501,82.1551 94.5,84C 89.8333,84.6667 85.1667,84.6667 80.5,84C 84.8333,83 89.1667,82 93.5,81C 90.0418,79.5845 86.3751,79.0845 82.5,79.5C 82.1658,76.812 82.8325,74.4786 84.5,72.5 Z"/></g>
<g><path style="opacity:1" fill="#273d78" d="M 15.5,67.5 C 16.5,67.5 17.5,67.5 18.5,67.5C 17.4972,72.1727 16.4972,76.8394 15.5,81.5C 19.5546,81.1758 23.5546,81.5091 27.5,82.5C 27.2907,83.086 26.9574,83.586 26.5,84C 21.9132,84.7991 17.4132,84.6324 13,83.5C 12.9867,78.061 13.82,72.7277 15.5,67.5 Z"/></g>
<g><path style="opacity:1" fill="#eff0f3" d="M 34.5,74.5 C 37.1667,74.5 39.8333,74.5 42.5,74.5C 43.0934,81.8752 39.7601,84.5418 32.5,82.5C 32.2826,79.5794 32.9493,76.9128 34.5,74.5 Z"/></g>
<g><path style="opacity:1" fill="#31437c" d="M 128.5,72.5 C 133.579,72.7825 133.746,73.7825 129,75.5C 127.857,78.7769 127.023,82.1102 126.5,85.5C 125.5,85.5 124.5,85.5 123.5,85.5C 123.808,80.5675 125.474,76.2342 128.5,72.5 Z"/></g>
<g><path style="opacity:1" fill="#203975" d="M 111.5,72.5 C 123.234,69.5493 126.234,73.216 120.5,83.5C 116.285,84.7977 112.118,84.7977 108,83.5C 107.08,80.6917 107.913,78.5251 110.5,77C 123.833,76 123.833,75 110.5,74C 111.056,73.6174 111.389,73.1174 111.5,72.5 Z"/></g>
<g><path style="opacity:1" fill="#203874" d="M 190.5,67.5 C 191.497,67.4701 192.164,67.9701 192.5,69C 191.37,74.3598 189.703,79.5264 187.5,84.5C 187.167,83.6667 186.833,82.8333 186.5,82C 187.897,77.1803 189.23,72.3469 190.5,67.5 Z"/></g>
<g><path style="opacity:1" fill="#1a3672" d="M 67.5,72.5 C 71.4367,72.2065 75.27,72.5399 79,73.5C 79.7562,75.8087 79.2562,77.8087 77.5,79.5C 62.9177,80.9792 62.9177,82.1458 77.5,83C 77.1667,83.3333 76.8333,83.6667 76.5,84C 72.2452,84.7961 68.0785,84.6295 64,83.5C 63.3656,79.0852 64.5322,75.4185 67.5,72.5 Z"/></g>
<g><path style="opacity:1" fill="#e5e8ed" d="M 68.5,74.5 C 71.1667,74.5 73.8333,74.5 76.5,74.5C 76.67,75.8221 76.3366,76.9887 75.5,78C 72.854,78.4974 70.1873,78.6641 67.5,78.5C 67.4326,77.0413 67.7659,75.7079 68.5,74.5 Z"/></g>
<g><path style="opacity:1" fill="#f9f9fa" d="M 110.5,79.5 C 113.518,79.3354 116.518,79.502 119.5,80C 116.998,82.212 113.998,83.0453 110.5,82.5C 110.5,81.5 110.5,80.5 110.5,79.5 Z"/></g>
<g><path style="opacity:1" fill="#153371" d="M 166.5,72.5 C 170.182,72.3347 173.848,72.5014 177.5,73C 178.982,75.5918 178.648,77.9251 176.5,80C 161.878,80.8454 161.878,82.0121 176.5,83.5C 172.217,84.4922 167.884,84.8256 163.5,84.5C 162.885,80.0088 163.885,76.0088 166.5,72.5 Z"/></g>
<g><path style="opacity:1" fill="#e5e7ec" d="M 168.5,74.5 C 171.397,74.1253 174.063,74.6253 176.5,76C 173.594,78.5839 170.261,79.0839 166.5,77.5C 167.193,76.4822 167.859,75.4822 168.5,74.5 Z"/></g>
<g><path style="opacity:1" fill="#293e78" d="M 101.5,68.5 C 103.176,69.1834 103.843,70.5168 103.5,72.5C 104.675,72.281 105.675,72.6143 106.5,73.5C 102.083,74.8575 100.416,77.8575 101.5,82.5C 102.5,82.5 103.5,82.5 104.5,82.5C 104.5,83.5 104.5,84.5 104.5,85.5C 102.801,85.6602 101.134,85.4935 99.5,85C 98.9186,84.1074 98.5852,83.1074 98.5,82C 99.5671,77.4957 100.567,72.9957 101.5,68.5 Z"/></g>
<g><path style="opacity:1" fill="#243c76" d="M 145.5,67.5 C 150.844,67.334 156.177,67.5006 161.5,68C 162.406,69.6995 162.739,71.5328 162.5,73.5C 160.641,73.5391 159.308,72.7058 158.5,71C 148.336,67.7996 143.002,71.2996 142.5,81.5C 147.214,81.8266 151.88,81.4933 156.5,80.5C 157.32,78.8888 158.654,78.2222 160.5,78.5C 160.671,80.9928 159.671,82.8261 157.5,84C 151.833,84.6667 146.167,84.6667 140.5,84C 139.002,77.4837 140.668,71.9837 145.5,67.5 Z"/></g>
<g><path style="opacity:1" fill="#fdd877" d="M 213.5,3.5 C 213.5,48.5 213.5,93.5 213.5,138.5C 258.5,138.5 303.5,138.5 348.5,138.5C 348.5,93.5 348.5,48.5 348.5,3.5C 349.499,48.6636 349.832,93.9969 349.5,139.5C 303.833,139.5 258.167,139.5 212.5,139.5C 212.168,93.9969 212.501,48.6636 213.5,3.5 Z"/></g>
<g><path style="opacity:1" fill="#fec82b" d="M 213.5,3.5 C 258.5,3.5 303.5,3.5 348.5,3.5C 348.5,48.5 348.5,93.5 348.5,138.5C 303.5,138.5 258.5,138.5 213.5,138.5C 213.5,93.5 213.5,48.5 213.5,3.5 Z"/></g>
<g><path style="opacity:1" fill="#17688e" d="M 263.5,45.5 C 283.171,44.1449 302.505,45.9782 321.5,51C 329.385,53.5219 336.218,57.6886 342,63.5C 346.091,70.9421 344.924,77.4421 338.5,83C 327.566,90.0742 315.566,94.4075 302.5,96C 279.644,99.3901 257.311,97.3901 235.5,90C 227.754,87.3899 221.921,82.5565 218,75.5C 216.297,68.5183 218.464,63.0183 224.5,59C 236.6,51.579 249.6,47.079 263.5,45.5 Z"/></g>
<g><path style="opacity:1" fill="#e2272e" d="M 277.5,80.5 C 280.247,80.1866 282.914,80.52 285.5,81.5C 283.582,84.1059 280.916,85.1059 277.5,84.5C 277.5,83.1667 277.5,81.8333 277.5,80.5 Z"/></g>
<g><path style="opacity:1" fill="#fac817" d="M 276.5,57.5 C 283.5,57.5 290.5,57.5 297.5,57.5C 297.326,59.861 296.993,62.1944 296.5,64.5C 294.167,64.5 291.833,64.5 289.5,64.5C 288.5,69.1667 287.5,73.8333 286.5,78.5C 283.833,78.5 281.167,78.5 278.5,78.5C 279.815,73.9061 280.815,69.2394 281.5,64.5C 279.5,64.5 277.5,64.5 275.5,64.5C 275.993,62.1944 276.326,59.861 276.5,57.5 Z"/></g>
<g><path style="opacity:1" fill="#f3f6f7" d="M 299.5,57.5 C 302.5,57.5 305.5,57.5 308.5,57.5C 309.742,72.5737 311.575,72.907 314,58.5C 316.381,57.565 318.881,57.2317 321.5,57.5C 319.71,66.4939 317.377,75.3272 314.5,84C 312.098,84.8141 309.765,84.6474 307.5,83.5C 306.759,79.0528 305.592,74.7195 304,70.5C 302.988,74.8826 301.821,79.2159 300.5,83.5C 298.257,84.4742 295.924,84.8076 293.5,84.5C 295.348,75.4428 297.348,66.4428 299.5,57.5 Z"/></g>
<g><path style="opacity:1" fill="#f3f6f8" d="M 246.5,57.5 C 250.167,57.5 253.833,57.5 257.5,57.5C 257.334,62.1785 257.501,66.8452 258,71.5C 259.766,66.8017 261.933,62.3017 264.5,58C 268.167,57.3333 271.833,57.3333 275.5,58C 272.635,66.6268 270.635,75.4601 269.5,84.5C 266.753,84.8134 264.086,84.48 261.5,83.5C 262.673,79.4876 263.506,75.4876 264,71.5C 261.976,75.7139 259.809,79.8806 257.5,84C 255.559,84.7429 253.726,84.5762 252,83.5C 251.667,79.5 251.333,75.5 251,71.5C 250,75.5 249,79.5 248,83.5C 245.619,84.435 243.119,84.7683 240.5,84.5C 242.342,75.4662 244.342,66.4662 246.5,57.5 Z"/></g>
<g><path style="opacity:1" fill="#00256c" d="M 204.5,138.5 C 204.833,138.5 205.167,138.5 205.5,138.5C 138.175,140.497 70.5082,141.163 2.5,140.5C 69.8333,139.833 137.167,139.167 204.5,138.5 Z"/></g>
</svg>
