<?xml version="1.0" encoding="UTF-8"?>
<!DOCTYPE svg PUBLIC "-//W3C//DTD SVG 1.1//EN" "http://www.w3.org/Graphics/SVG/1.1/DTD/svg11.dtd">
<svg xmlns="http://www.w3.org/2000/svg" version="1.1" width="622px" height="593px" style="shape-rendering:geometricPrecision; text-rendering:geometricPrecision; image-rendering:optimizeQuality; fill-rule:evenodd; clip-rule:evenodd" xmlns:xlink="http://www.w3.org/1999/xlink">
<g><path style="opacity:1" fill="#fffefd" d="M -0.5,-0.5 C 87.1667,-0.5 174.833,-0.5 262.5,-0.5C 178.476,5.25499 95.1428,16.9217 12.5,34.5C 12.3333,208.167 12.5,381.834 13,555.5C 116.412,579.614 221.246,591.614 327.5,591.5C 327.5,591.833 327.5,592.167 327.5,592.5C 218.167,592.5 108.833,592.5 -0.5,592.5C -0.5,394.833 -0.5,197.167 -0.5,-0.5 Z"/></g>
<g><path style="opacity:1" fill="#feca01" d="M 262.5,-0.5 C 291.167,-0.5 319.833,-0.5 348.5,-0.5C 434.875,4.65231 520.375,16.6523 605,35.5C 605.5,208.833 605.667,382.166 605.5,555.5C 513.94,575.759 421.273,587.759 327.5,591.5C 221.246,591.614 116.412,579.614 13,555.5C 12.5,381.834 12.3333,208.167 12.5,34.5C 95.1428,16.9217 178.476,5.25499 262.5,-0.5 Z"/></g>
<g><path style="opacity:1" fill="#fffefe" d="M 348.5,-0.5 C 439.5,-0.5 530.5,-0.5 621.5,-0.5C 621.5,197.167 621.5,394.833 621.5,592.5C 523.5,592.5 425.5,592.5 327.5,592.5C 327.5,592.167 327.5,591.833 327.5,591.5C 421.273,587.759 513.94,575.759 605.5,555.5C 605.667,382.166 605.5,208.833 605,35.5C 520.375,16.6523 434.875,4.65231 348.5,-0.5 Z"/></g>
<g><path style="opacity:1" fill="#f8f8f6" d="M 369.5,81.5 C 372.189,87.0351 375.522,92.2018 379.5,97C 416.014,110.727 452.68,124.06 489.5,137C 499.947,141.727 503.447,149.561 500,160.5C 456,279.833 412,399.167 368,518.5C 362.771,525.096 355.938,527.263 347.5,525C 298.833,507.333 250.167,489.667 201.5,472C 189.16,468.318 184.327,460.151 187,447.5C 203.606,401.013 220.606,354.68 238,308.5C 238.896,305.975 238.396,303.808 236.5,302C 233.846,301.059 231.179,300.226 228.5,299.5C 187.488,279.989 145.154,263.489 101.5,250C 98.5228,248.855 96.8561,246.688 96.5,243.5C 97.7229,240.053 99.2229,236.72 101,233.5C 135.252,175.331 169.252,116.997 203,58.5C 204.986,56.2585 207.486,55.2585 210.5,55.5C 225.286,59.3734 239.619,64.5401 253.5,71C 263.251,76.2061 272.918,81.3728 282.5,86.5C 285.028,86.2372 287.361,85.4039 289.5,84C 306.851,72.6417 324.685,62.1417 343,52.5C 346.775,53.2647 349.775,55.2647 352,58.5C 357.697,66.3513 363.53,74.0179 369.5,81.5 Z"/></g>
<g><path style="opacity:1" fill="#245276" d="M 338.5,69.5 C 339.873,69.3433 341.207,69.51 342.5,70C 388.942,130.01 410.108,198.176 406,274.5C 393.617,199.836 357.45,140.003 297.5,95C 311.567,86.9759 325.233,78.4759 338.5,69.5 Z"/></g>
<g><path style="opacity:1" fill="#245277" d="M 215.5,70.5 C 279.157,91.3205 327.323,130.987 360,189.5C 398.842,262.401 407.175,338.735 385,418.5C 379.376,400.247 370.376,383.914 358,369.5C 330.782,340.938 299.615,317.772 264.5,300C 217.094,276.095 168.261,255.928 118,239.5C 117.48,237.711 117.813,236.044 119,234.5C 150.926,179.641 183.093,124.975 215.5,70.5 Z"/></g>
<g><path style="opacity:1" fill="#070501" d="M 369.5,81.5 C 411.245,96.0268 452.912,110.86 494.5,126C 505.807,130.775 512.14,139.275 513.5,151.5C 512.799,159.106 510.965,166.44 508,173.5C 465.779,291.269 422.446,408.602 378,525.5C 369.721,536.04 358.888,539.874 345.5,537C 294.167,518.333 242.833,499.667 191.5,481C 176.953,473.405 171.453,461.571 175,445.5C 192.371,396.543 210.204,347.876 228.5,299.5C 231.179,300.226 233.846,301.059 236.5,302C 238.396,303.808 238.896,305.975 238,308.5C 220.606,354.68 203.606,401.013 187,447.5C 184.327,460.151 189.16,468.318 201.5,472C 250.167,489.667 298.833,507.333 347.5,525C 355.938,527.263 362.771,525.096 368,518.5C 412,399.167 456,279.833 500,160.5C 503.447,149.561 499.947,141.727 489.5,137C 452.68,124.06 416.014,110.727 379.5,97C 375.522,92.2018 372.189,87.0351 369.5,81.5 Z"/></g>
<g><path style="opacity:1" fill="#020100" d="M 390.5,118.5 C 419.181,128.561 447.848,138.727 476.5,149C 480.354,150.85 482.688,153.85 483.5,158C 462.458,217.794 440.624,277.294 418,336.5C 420.07,313.748 421.57,290.915 422.5,268C 423.121,215.664 412.455,165.831 390.5,118.5 Z"/></g>
<g><path style="opacity:1" fill="#f9f9f8" d="M 240.5,124.5 C 279.261,121.619 305.428,138.286 319,174.5C 326.086,205.914 316.919,231.414 291.5,251C 262.203,268.822 233.87,267.489 206.5,247C 182.917,223.83 176.75,196.663 188,165.5C 198.705,142.944 216.205,129.278 240.5,124.5 Z"/></g>
<g><path style="opacity:1" fill="#2d587f" d="M 204.5,157.5 C 207.167,157.5 209.833,157.5 212.5,157.5C 212.334,164.841 212.5,172.174 213,179.5C 216.955,183.489 220.955,183.489 225,179.5C 225.5,172.174 225.666,164.841 225.5,157.5C 227.833,157.5 230.167,157.5 232.5,157.5C 232.666,165.507 232.5,173.507 232,181.5C 227.666,188.283 221.499,190.783 213.5,189C 210.438,187.939 207.938,186.106 206,183.5C 204.59,174.916 204.09,166.25 204.5,157.5 Z"/></g>
<g><path style="opacity:1" fill="#2d577c" d="M 247.5,156.5 C 252.946,156.364 258.28,157.031 263.5,158.5C 263.808,160.924 263.474,163.257 262.5,165.5C 257.662,162.578 252.662,162.078 247.5,164C 246.167,165.333 246.167,166.667 247.5,168C 252.167,169.333 256.833,170.667 261.5,172C 267.647,179.25 266.314,184.917 257.5,189C 251.114,190.209 245.114,189.209 239.5,186C 237.91,183.52 238.41,181.687 241,180.5C 246.352,182.238 251.852,182.905 257.5,182.5C 257.714,180.856 257.38,179.356 256.5,178C 250.075,177.973 244.575,175.807 240,171.5C 239.333,168.5 239.333,165.5 240,162.5C 242.114,159.879 244.614,157.879 247.5,156.5 Z"/></g>
<g><path style="opacity:1" fill="#29577d" d="M 271.5,157.5 C 277.176,157.334 282.843,157.501 288.5,158C 298.452,161.402 301.952,168.235 299,178.5C 296.794,184.192 292.627,187.359 286.5,188C 281.511,188.499 276.511,188.666 271.5,188.5C 271.5,178.167 271.5,167.833 271.5,157.5 Z"/></g>
<g><path style="opacity:1" fill="#f5f5f3" d="M 279.5,163.5 C 289.7,162.89 293.533,167.557 291,177.5C 288.342,181.563 284.509,183.229 279.5,182.5C 279.5,176.167 279.5,169.833 279.5,163.5 Z"/></g>
<g><path style="opacity:1" fill="#23537b" d="M 214.5,200.5 C 214.5,208.833 214.5,217.167 214.5,225.5C 219.833,225.5 225.167,225.5 230.5,225.5C 230.5,227.5 230.5,229.5 230.5,231.5C 222.833,231.5 215.167,231.5 207.5,231.5C 207.5,221.167 207.5,210.833 207.5,200.5C 209.833,200.5 212.167,200.5 214.5,200.5 Z"/></g>
<g><path style="opacity:1" fill="#31587c" d="M 234.5,200.5 C 242.238,200.144 249.905,200.644 257.5,202C 264.284,208.236 263.951,214.236 256.5,220C 258.833,223.667 261.167,227.333 263.5,231C 260.5,231.667 257.5,231.667 254.5,231C 252.833,228 251.167,225 249.5,222C 247.19,221.503 244.857,221.337 242.5,221.5C 242.5,224.833 242.5,228.167 242.5,231.5C 239.833,231.5 237.167,231.5 234.5,231.5C 234.5,221.167 234.5,210.833 234.5,200.5 Z"/></g>
<g><path style="opacity:1" fill="#30567b" d="M 268.5,200.5 C 274.509,200.334 280.509,200.501 286.5,201C 295.654,204.476 299.154,210.976 297,220.5C 294.643,226.193 290.477,229.693 284.5,231C 279.177,231.499 273.844,231.666 268.5,231.5C 268.5,221.167 268.5,210.833 268.5,200.5 Z"/></g>
<g><path style="opacity:1" fill="#eff2f1" d="M 242.5,206.5 C 245.518,206.335 248.518,206.502 251.5,207C 255.037,208.826 255.371,211.16 252.5,214C 249.183,214.498 245.85,214.665 242.5,214.5C 242.5,211.833 242.5,209.167 242.5,206.5 Z"/></g>
<g><path style="opacity:1" fill="#f0f4f3" d="M 276.5,206.5 C 286.557,206.052 290.723,210.718 289,220.5C 285.907,224.795 281.74,226.462 276.5,225.5C 276.5,219.167 276.5,212.833 276.5,206.5 Z"/></g>
<g><path style="opacity:1" fill="#add3e0" d="M 214.5,200.5 C 215.492,208.316 215.826,216.316 215.5,224.5C 220.695,224.179 225.695,224.513 230.5,225.5C 225.167,225.5 219.833,225.5 214.5,225.5C 214.5,217.167 214.5,208.833 214.5,200.5 Z"/></g>
<g><path style="opacity:1" fill="#e53224" d="M 252.5,312.5 C 291.47,329.615 324.636,354.615 352,387.5C 365.597,406.292 371.93,427.292 371,450.5C 370.512,457.33 367.012,459.83 360.5,458C 314.598,442.145 269.098,425.312 224,407.5C 221.67,404.541 221.004,401.207 222,397.5C 232.075,369.105 242.242,340.772 252.5,312.5 Z"/></g>
<g><path style="opacity:1" fill="#030303" d="M 212.5,429.5 C 214.527,429.338 216.527,429.505 218.5,430C 230.833,434.333 243.167,438.667 255.5,443C 256.059,443.725 256.392,444.558 256.5,445.5C 255.277,448.947 253.777,452.28 252,455.5C 251.047,458.432 250.547,461.432 250.5,464.5C 248.473,464.662 246.473,464.495 244.5,464C 232.833,459.667 221.167,455.333 209.5,451C 204.729,446.376 204.229,441.21 208,435.5C 209.332,433.34 210.832,431.34 212.5,429.5 Z"/></g>
<g><path style="opacity:1" fill="#060502" d="M 279.5,447.5 C 293.995,447.165 301.495,454.165 302,468.5C 300.605,476.228 296.105,481.062 288.5,483C 270.43,483.732 263.596,475.232 268,457.5C 270.794,452.866 274.627,449.533 279.5,447.5 Z"/></g>
<g><path style="opacity:1" fill="#050401" d="M 318.5,466.5 C 332.58,471.361 346.58,476.528 360.5,482C 361.718,483.438 362.385,485.105 362.5,487C 361.69,492.79 359.356,497.79 355.5,502C 353.167,502.667 350.833,502.667 348.5,502C 336.461,497.598 324.461,493.098 312.5,488.5C 311.386,487.277 311.219,485.944 312,484.5C 315.075,478.769 317.242,472.769 318.5,466.5 Z"/></g>
</svg>
